<svg xmlns="http://www.w3.org/2000/svg" xmlns:xlink="http://www.w3.org/1999/xlink" width="500" zoomAndPan="magnify" viewBox="0 0 375 374.999991" height="500" preserveAspectRatio="xMidYMid meet" version="1.0"><defs><g/><clipPath id="id1"><path d="M 102 82 L 260 82 L 260 238.644531 L 102 238.644531 Z M 102 82 " clip-rule="nonzero"/></clipPath></defs><path fill="#5deb11" d="M 177.261719 76.691406 C 177.90625 76.691406 178.480469 76.691406 179.089844 76.730469 C 177.734375 76.449219 176.375 76.210938 175.007812 76.011719 C 173.640625 75.8125 172.265625 75.65625 170.890625 75.539062 C 169.511719 75.421875 168.132812 75.347656 166.75 75.316406 C 165.367188 75.28125 163.988281 75.289062 162.605469 75.339844 C 161.226562 75.390625 159.847656 75.480469 158.46875 75.613281 C 157.09375 75.746094 155.722656 75.921875 154.359375 76.136719 C 152.992188 76.351562 151.636719 76.605469 150.285156 76.902344 C 148.9375 77.199219 147.597656 77.539062 146.269531 77.914062 C 144.9375 78.292969 143.621094 78.707031 142.316406 79.164062 C 141.015625 79.621094 139.726562 80.117188 138.449219 80.652344 C 137.175781 81.183594 135.917969 81.757812 134.679688 82.367188 C 133.441406 82.976562 132.21875 83.621094 131.019531 84.304688 C 129.820312 84.988281 128.640625 85.707031 127.484375 86.460938 C 126.324219 87.214844 125.191406 88.003906 124.082031 88.824219 C 122.972656 89.644531 121.890625 90.5 120.832031 91.386719 C 119.773438 92.273438 118.746094 93.191406 117.742188 94.140625 C 116.742188 95.089844 115.769531 96.070312 114.824219 97.078125 C 113.882812 98.085938 112.96875 99.121094 112.089844 100.183594 C 111.207031 101.246094 110.359375 102.332031 109.546875 103.445312 C 108.730469 104.558594 107.953125 105.695312 107.207031 106.855469 C 106.460938 108.015625 105.75 109.199219 105.074219 110.402344 C 104.398438 111.605469 103.761719 112.828125 103.160156 114.066406 C 102.5625 115.308594 102 116.566406 101.472656 117.84375 C 100.949219 119.117188 100.464844 120.40625 100.019531 121.710938 C 99.570312 123.015625 99.164062 124.332031 98.796875 125.660156 C 98.429688 126.992188 98.105469 128.328125 97.816406 129.675781 C 97.53125 131.027344 97.289062 132.382812 97.082031 133.746094 C 96.878906 135.109375 96.714844 136.476562 96.59375 137.847656 C 96.472656 139.222656 96.394531 140.597656 96.355469 141.976562 C 96.320312 143.351562 96.320312 144.730469 96.367188 146.109375 C 96.414062 147.484375 96.5 148.859375 96.628906 150.234375 C 96.757812 151.605469 96.925781 152.972656 97.136719 154.335938 C 97.175781 153.050781 97.242188 151.769531 97.339844 150.488281 C 97.441406 149.207031 97.570312 147.929688 97.730469 146.65625 C 97.894531 145.378906 98.085938 144.109375 98.308594 142.84375 C 98.527344 141.582031 98.78125 140.320312 99.066406 139.066406 C 99.347656 137.816406 99.660156 136.570312 100.003906 135.332031 C 100.347656 134.09375 100.722656 132.863281 101.125 131.644531 C 101.527344 130.425781 101.957031 129.214844 102.417969 128.015625 C 102.878906 126.816406 103.371094 125.628906 103.886719 124.453125 C 104.40625 123.277344 104.953125 122.117188 105.527344 120.964844 C 106.101562 119.816406 106.707031 118.679688 107.335938 117.5625 C 107.964844 116.441406 108.621094 115.335938 109.304688 114.246094 C 109.984375 113.15625 110.695312 112.085938 111.429688 111.03125 C 112.164062 109.976562 112.921875 108.941406 113.707031 107.921875 C 114.492188 106.902344 115.300781 105.902344 116.136719 104.925781 C 116.96875 103.945312 117.824219 102.984375 118.703125 102.046875 C 119.582031 101.109375 120.484375 100.191406 121.40625 99.296875 C 122.332031 98.402344 123.277344 97.53125 124.242188 96.679688 C 125.207031 95.832031 126.195312 95.003906 127.199219 94.203125 C 128.203125 93.402344 129.230469 92.625 130.273438 91.871094 C 131.316406 91.117188 132.375 90.390625 133.453125 89.6875 C 134.535156 88.984375 135.628906 88.308594 136.738281 87.660156 C 137.851562 87.011719 138.976562 86.390625 140.117188 85.792969 C 141.257812 85.199219 142.414062 84.632812 143.582031 84.09375 C 144.75 83.550781 145.929688 83.039062 147.125 82.558594 C 148.316406 82.074219 149.523438 81.621094 150.738281 81.195312 C 151.953125 80.769531 153.175781 80.375 154.410156 80.007812 C 155.644531 79.644531 156.886719 79.308594 158.136719 79 C 159.386719 78.695312 160.644531 78.417969 161.910156 78.171875 C 163.171875 77.925781 164.441406 77.710938 165.714844 77.523438 C 166.992188 77.339844 168.269531 77.1875 169.550781 77.0625 C 170.832031 76.9375 172.117188 76.847656 173.402344 76.785156 C 174.6875 76.722656 175.976562 76.691406 177.261719 76.691406 Z M 177.261719 76.691406 " fill-opacity="1" fill-rule="nonzero"/><path fill="#5deb11" d="M 205.171875 81.148438 C 206.859375 81.5625 208.527344 82.035156 210.183594 82.558594 C 211.835938 83.085938 213.472656 83.664062 215.089844 84.292969 C 216.707031 84.925781 218.300781 85.605469 219.871094 86.339844 C 221.445312 87.074219 222.992188 87.859375 224.511719 88.695312 C 226.03125 89.527344 227.527344 90.410156 228.988281 91.339844 C 230.453125 92.273438 231.882812 93.25 233.285156 94.273438 C 234.683594 95.296875 236.050781 96.367188 237.378906 97.476562 C 238.710938 98.589844 240.003906 99.746094 241.257812 100.941406 C 242.511719 102.136719 243.726562 103.371094 244.902344 104.648438 C 246.078125 105.921875 247.207031 107.234375 248.296875 108.582031 C 249.386719 109.929688 250.429688 111.3125 251.429688 112.726562 C 252.429688 114.140625 253.378906 115.589844 254.285156 117.066406 C 255.191406 118.542969 256.046875 120.050781 256.851562 121.582031 C 257.660156 123.113281 258.414062 124.671875 259.121094 126.253906 C 259.824219 127.835938 260.476562 129.4375 261.078125 131.0625 C 261.679688 132.6875 262.226562 134.328125 262.71875 135.988281 C 263.214844 137.648438 263.652344 139.324219 264.039062 141.011719 C 264.421875 142.699219 264.75 144.398438 265.027344 146.105469 C 265.300781 147.816406 265.519531 149.53125 265.679688 151.257812 C 265.84375 152.980469 265.949219 154.707031 265.996094 156.4375 C 266.046875 158.167969 266.039062 159.898438 265.976562 161.628906 C 265.914062 163.359375 265.792969 165.082031 265.617188 166.804688 C 265.441406 168.527344 265.210938 170.242188 264.921875 171.949219 C 264.636719 173.65625 264.292969 175.355469 263.894531 177.039062 C 263.496094 178.722656 263.046875 180.394531 262.539062 182.050781 C 262.03125 183.707031 261.472656 185.34375 260.859375 186.960938 C 260.246094 188.582031 259.578125 190.179688 258.859375 191.757812 C 258.144531 193.332031 257.375 194.882812 256.554688 196.410156 C 255.738281 197.9375 254.871094 199.433594 253.953125 200.90625 C 253.035156 202.375 252.074219 203.816406 251.0625 205.222656 C 250.054688 206.628906 249 208.003906 247.898438 209.34375 C 246.800781 210.683594 245.65625 211.984375 244.472656 213.25 C 245.917969 212.105469 247.316406 210.910156 248.671875 209.664062 C 250.027344 208.417969 251.332031 207.121094 252.59375 205.777344 C 253.851562 204.433594 255.058594 203.042969 256.210938 201.609375 C 257.367188 200.175781 258.46875 198.703125 259.511719 197.1875 C 260.558594 195.671875 261.546875 194.121094 262.476562 192.53125 C 263.40625 190.941406 264.273438 189.324219 265.082031 187.671875 C 265.894531 186.015625 266.640625 184.335938 267.324219 182.628906 C 268.007812 180.921875 268.625 179.191406 269.179688 177.4375 C 269.734375 175.683594 270.226562 173.910156 270.648438 172.121094 C 271.070312 170.332031 271.425781 168.527344 271.714844 166.710938 C 272.003906 164.894531 272.222656 163.070312 272.375 161.238281 C 272.53125 159.40625 272.613281 157.570312 272.628906 155.730469 C 272.644531 153.890625 272.59375 152.054688 272.472656 150.21875 C 272.351562 148.382812 272.160156 146.554688 271.90625 144.734375 C 271.648438 142.914062 271.324219 141.105469 270.929688 139.308594 C 270.539062 137.511719 270.082031 135.730469 269.554688 133.964844 C 269.03125 132.203125 268.441406 130.460938 267.789062 128.742188 C 267.132812 127.023438 266.417969 125.332031 265.636719 123.664062 C 264.855469 121.996094 264.015625 120.363281 263.113281 118.757812 C 262.210938 117.15625 261.25 115.585938 260.230469 114.054688 C 259.210938 112.519531 258.136719 111.027344 257.007812 109.574219 C 255.878906 108.121094 254.695312 106.710938 253.460938 105.34375 C 252.222656 103.980469 250.941406 102.660156 249.605469 101.390625 C 248.273438 100.121094 246.894531 98.902344 245.46875 97.734375 C 244.046875 96.566406 242.582031 95.449219 241.074219 94.390625 C 239.566406 93.332031 238.019531 92.328125 236.441406 91.382812 C 234.859375 90.4375 233.242188 89.550781 231.59375 88.726562 C 229.945312 87.898438 228.269531 87.136719 226.566406 86.433594 C 224.859375 85.734375 223.132812 85.09375 221.378906 84.523438 C 219.628906 83.949219 217.855469 83.441406 216.066406 82.996094 C 214.277344 82.554688 212.472656 82.179688 210.65625 81.871094 C 208.835938 81.5625 207.007812 81.320312 205.171875 81.148438 Z M 205.171875 81.148438 " fill-opacity="1" fill-rule="nonzero"/><g clip-path="url(#id1)"><path fill="#ba07ef" d="M 181.234375 82.023438 C 179.300781 82.023438 177.367188 82.09375 175.4375 82.234375 C 173.507812 82.378906 171.589844 82.589844 169.675781 82.875 C 167.761719 83.15625 165.859375 83.511719 163.972656 83.933594 C 162.085938 84.359375 160.214844 84.851562 158.363281 85.414062 C 156.515625 85.976562 154.6875 86.605469 152.882812 87.300781 C 151.078125 87.996094 149.300781 88.757812 147.554688 89.585938 C 145.804688 90.410156 144.089844 91.300781 142.410156 92.253906 C 140.726562 93.210938 139.082031 94.222656 137.476562 95.296875 C 135.867188 96.371094 134.304688 97.503906 132.78125 98.695312 C 131.257812 99.882812 129.78125 101.128906 128.351562 102.429688 C 126.917969 103.726562 125.539062 105.078125 124.207031 106.476562 C 122.878906 107.878906 121.601562 109.324219 120.378906 110.820312 C 119.152344 112.3125 117.988281 113.851562 116.878906 115.433594 C 115.769531 117.011719 114.71875 118.632812 113.730469 120.289062 C 112.738281 121.949219 111.8125 123.640625 110.949219 125.367188 C 110.085938 127.09375 109.285156 128.847656 108.550781 130.632812 C 107.816406 132.417969 107.152344 134.226562 106.550781 136.0625 C 105.953125 137.894531 105.421875 139.75 104.957031 141.621094 C 104.496094 143.496094 104.101562 145.382812 103.78125 147.285156 C 103.457031 149.1875 103.207031 151.101562 103.023438 153.019531 C 102.84375 154.941406 102.734375 156.867188 102.695312 158.796875 C 102.65625 160.722656 102.691406 162.652344 102.796875 164.578125 C 102.898438 166.503906 103.074219 168.425781 103.324219 170.339844 C 103.570312 172.25 103.886719 174.152344 104.273438 176.042969 C 104.660156 177.933594 105.117188 179.808594 105.644531 181.664062 C 106.171875 183.519531 106.765625 185.355469 107.429688 187.167969 C 108.089844 188.980469 108.820312 190.765625 109.617188 192.523438 C 110.410156 194.285156 111.269531 196.011719 112.191406 197.707031 C 113.113281 199.402344 114.097656 201.0625 115.144531 202.683594 C 116.191406 204.308594 117.296875 205.890625 118.457031 207.433594 C 119.621094 208.972656 120.839844 210.46875 122.113281 211.921875 C 123.386719 213.375 124.714844 214.777344 126.09375 216.132812 C 119.726562 207.59375 115.527344 197.773438 113.839844 189.765625 C 109.261719 168.09375 117.160156 148.648438 118.855469 147.710938 C 114.824219 138.9375 119.164062 132.117188 120.511719 130.535156 C 130.316406 118.175781 147.4375 104.929688 148.84375 104.304688 C 150.171875 103.371094 150.917969 103.660156 151.125 104 C 151.332031 104.34375 151.460938 104.984375 150.480469 105.929688 C 150.179688 106.207031 149.863281 106.464844 149.53125 106.703125 C 140.503906 113.777344 136.132812 117.878906 127.96875 126.832031 C 127.324219 127.523438 126.828125 128.308594 126.472656 129.183594 C 126.25 129.859375 126.320312 130.5 126.679688 131.113281 C 126.90625 131.292969 127.167969 131.398438 127.457031 131.433594 C 127.742188 131.464844 128.019531 131.421875 128.285156 131.300781 C 128.988281 130.886719 129.597656 130.359375 130.101562 129.71875 C 137.96875 120.394531 149.847656 110.582031 151.382812 109.636719 C 152.859375 108.542969 153.769531 108.40625 154.132812 108.992188 C 154.492188 109.578125 154.003906 110.515625 152.726562 111.507812 C 151.390625 112.253906 138.09375 123.320312 129.863281 133.621094 C 129.40625 134.148438 129 134.71875 128.652344 135.324219 C 128.179688 136.199219 128.007812 137.191406 128.652344 137.898438 C 129.296875 138.605469 130.089844 138.367188 130.800781 137.78125 C 131.308594 137.339844 131.773438 136.851562 132.191406 136.320312 C 140.277344 126.125 153.472656 115.300781 154.761719 114.527344 C 156.054688 113.558594 157.027344 113.402344 157.402344 113.957031 C 157.773438 114.507812 157.363281 115.34375 155.96875 116.472656 C 154.539062 117.449219 142.980469 126.914062 135.460938 136.117188 C 134.898438 136.726562 134.46875 137.417969 134.171875 138.191406 C 133.96875 138.839844 134.035156 139.460938 134.367188 140.050781 C 134.582031 140.238281 134.828125 140.355469 135.109375 140.398438 C 135.390625 140.445312 135.664062 140.410156 135.925781 140.296875 C 136.679688 139.871094 137.324219 139.320312 137.859375 138.644531 C 145.40625 129.960938 149.546875 126.105469 157.941406 119.214844 C 158.234375 118.980469 158.546875 118.765625 158.871094 118.574219 C 159.960938 117.929688 160.449219 118.277344 160.695312 118.574219 C 160.941406 118.871094 160.921875 119.679688 159.761719 120.652344 C 158.535156 121.398438 144.695312 133.601562 136.242188 145.679688 C 134.796875 147.609375 131.535156 150.5 124.808594 150.5 C 121.914062 155.1875 116.042969 170.382812 120.496094 188.9375 C 124.304688 204.847656 134.351562 225.171875 160.746094 235.984375 C 162.605469 236.476562 164.496094 236.910156 166.402344 237.269531 C 168.039062 233.511719 168.855469 229.585938 168.855469 225.488281 C 168.855469 216.171875 165.660156 210.144531 157.890625 202.375 C 150.121094 194.609375 146.605469 188.308594 146.605469 178.738281 C 146.609375 176.824219 146.789062 174.925781 147.148438 173.046875 C 148.207031 174.847656 149.402344 176.550781 150.730469 178.160156 C 152.0625 179.769531 153.511719 181.265625 155.082031 182.644531 C 156.648438 184.023438 158.316406 185.273438 160.085938 186.390625 C 161.851562 187.503906 163.695312 188.476562 165.617188 189.300781 C 167.539062 190.125 169.515625 190.792969 171.542969 191.304688 C 173.570312 191.816406 175.628906 192.164062 177.710938 192.351562 C 179.792969 192.535156 181.878906 192.558594 183.964844 192.414062 C 186.054688 192.269531 188.117188 191.964844 190.152344 191.492188 C 192.191406 191.023438 194.179688 190.394531 196.117188 189.609375 C 198.058594 188.824219 199.921875 187.894531 201.710938 186.8125 C 203.5 185.734375 205.195312 184.519531 206.789062 183.171875 C 208.386719 181.824219 209.867188 180.355469 211.230469 178.773438 C 212.59375 177.191406 213.824219 175.511719 214.917969 173.738281 C 216.015625 171.960938 216.960938 170.109375 217.765625 168.179688 C 218.566406 166.253906 219.207031 164.277344 219.695312 162.246094 C 220.179688 160.21875 220.503906 158.164062 220.664062 156.082031 C 221.320312 158.101562 221.882812 160.144531 222.339844 162.21875 C 222.800781 164.289062 223.160156 166.378906 223.421875 168.484375 C 223.679688 170.589844 223.835938 172.703125 223.886719 174.824219 C 223.941406 176.945312 223.894531 179.066406 223.742188 181.183594 C 223.59375 183.296875 223.339844 185.402344 222.984375 187.496094 C 222.628906 189.585938 222.175781 191.65625 221.621094 193.707031 C 221.066406 195.753906 220.414062 197.773438 219.664062 199.757812 C 218.914062 201.742188 218.066406 203.6875 217.128906 205.59375 C 216.191406 207.496094 215.164062 209.351562 214.046875 211.15625 C 212.929688 212.964844 211.726562 214.710938 210.4375 216.402344 C 209.152344 218.089844 207.785156 219.714844 206.34375 221.273438 C 204.898438 222.832031 203.382812 224.316406 201.796875 225.730469 C 200.207031 227.144531 198.554688 228.476562 196.839844 229.730469 C 195.121094 230.984375 193.347656 232.152344 191.519531 233.234375 C 189.6875 234.320312 187.8125 235.3125 185.886719 236.214844 C 183.960938 237.117188 181.996094 237.925781 179.992188 238.640625 C 180.402344 238.640625 180.816406 238.671875 181.234375 238.671875 C 259.789062 223.597656 242.53125 158.757812 237.429688 150.480469 C 229.628906 150.898438 223.480469 146.507812 216.882812 139.246094 C 204.542969 125.652344 206.398438 108.652344 210.90625 105.710938 C 214.621094 103.292969 226.242188 109.121094 235.097656 119.023438 C 245.921875 131.121094 247.566406 141.410156 244.582031 148.808594 C 247.066406 150.1875 262.160156 190.71875 232.011719 220.082031 C 233.535156 218.792969 235.007812 217.449219 236.425781 216.050781 C 237.847656 214.652344 239.210938 213.203125 240.519531 211.699219 C 241.828125 210.199219 243.078125 208.648438 244.269531 207.050781 C 245.457031 205.453125 246.585938 203.8125 247.652344 202.128906 C 248.714844 200.445312 249.714844 198.726562 250.648438 196.964844 C 251.582031 195.207031 252.445312 193.414062 253.242188 191.589844 C 254.039062 189.765625 254.765625 187.914062 255.417969 186.03125 C 256.074219 184.152344 256.65625 182.25 257.164062 180.324219 C 257.675781 178.402344 258.109375 176.460938 258.46875 174.503906 C 258.832031 172.546875 259.117188 170.578125 259.328125 168.597656 C 259.539062 166.621094 259.671875 164.636719 259.730469 162.648438 C 259.789062 160.65625 259.773438 158.667969 259.679688 156.679688 C 259.585938 154.691406 259.417969 152.710938 259.171875 150.734375 C 258.929688 148.761719 258.609375 146.796875 258.214844 144.847656 C 257.820312 142.894531 257.351562 140.964844 256.808594 139.046875 C 256.265625 137.132812 255.648438 135.242188 254.960938 133.371094 C 254.273438 131.503906 253.515625 129.664062 252.6875 127.851562 C 251.859375 126.042969 250.964844 124.265625 250 122.523438 C 249.035156 120.777344 248.007812 119.074219 246.914062 117.410156 C 245.820312 115.746094 244.664062 114.125 243.445312 112.546875 C 242.226562 110.972656 240.949219 109.441406 239.617188 107.964844 C 238.28125 106.484375 236.890625 105.054688 235.449219 103.683594 C 234.003906 102.308594 232.511719 100.992188 230.964844 99.730469 C 229.421875 98.46875 227.832031 97.269531 226.195312 96.128906 C 224.558594 94.992188 222.882812 93.914062 221.164062 92.902344 C 219.445312 91.890625 217.691406 90.945312 215.898438 90.066406 C 214.109375 89.1875 212.285156 88.378906 210.433594 87.636719 C 208.582031 86.898438 206.703125 86.230469 204.800781 85.632812 C 202.898438 85.035156 200.972656 84.511719 199.03125 84.058594 C 197.085938 83.609375 195.128906 83.230469 193.15625 82.929688 C 191.183594 82.628906 189.203125 82.402344 187.214844 82.25 C 185.222656 82.097656 183.230469 82.023438 181.234375 82.023438 Z M 181.234375 183.945312 C 180.597656 183.945312 179.960938 183.914062 179.324219 183.851562 C 178.6875 183.789062 178.058594 183.699219 177.429688 183.574219 C 176.804688 183.449219 176.1875 183.292969 175.574219 183.109375 C 174.964844 182.925781 174.363281 182.710938 173.773438 182.464844 C 173.183594 182.222656 172.605469 181.949219 172.042969 181.652344 C 171.480469 181.351562 170.933594 181.023438 170.402344 180.667969 C 169.871094 180.316406 169.359375 179.9375 168.863281 179.53125 C 168.371094 179.128906 167.898438 178.703125 167.445312 178.25 C 166.996094 177.800781 166.566406 177.328125 166.160156 176.835938 C 165.753906 176.34375 165.375 175.832031 165.019531 175.304688 C 164.664062 174.773438 164.339844 174.230469 164.035156 173.667969 C 163.734375 173.105469 163.464844 172.53125 163.21875 171.941406 C 162.972656 171.355469 162.757812 170.753906 162.574219 170.144531 C 162.386719 169.535156 162.234375 168.917969 162.109375 168.292969 C 161.984375 167.667969 161.890625 167.039062 161.828125 166.40625 C 161.765625 165.773438 161.734375 165.136719 161.734375 164.5 C 161.734375 163.863281 161.765625 163.230469 161.828125 162.59375 C 161.890625 161.960938 161.984375 161.332031 162.109375 160.707031 C 162.234375 160.082031 162.386719 159.464844 162.574219 158.855469 C 162.757812 158.246094 162.972656 157.648438 163.21875 157.058594 C 163.464844 156.46875 163.734375 155.894531 164.035156 155.332031 C 164.339844 154.773438 164.664062 154.226562 165.019531 153.695312 C 165.375 153.167969 165.753906 152.65625 166.160156 152.164062 C 166.566406 151.671875 166.996094 151.199219 167.445312 150.75 C 167.898438 150.300781 168.371094 149.871094 168.863281 149.46875 C 169.359375 149.066406 169.871094 148.6875 170.402344 148.332031 C 170.933594 147.976562 171.480469 147.652344 172.042969 147.351562 C 172.605469 147.050781 173.183594 146.777344 173.773438 146.535156 C 174.363281 146.292969 174.964844 146.078125 175.574219 145.890625 C 176.1875 145.707031 176.804688 145.550781 177.429688 145.429688 C 178.058594 145.304688 178.6875 145.210938 179.324219 145.148438 C 179.960938 145.085938 180.597656 145.054688 181.234375 145.054688 C 181.875 145.054688 182.511719 145.085938 183.148438 145.148438 C 183.78125 145.210938 184.414062 145.304688 185.039062 145.429688 C 185.667969 145.550781 186.285156 145.707031 186.894531 145.890625 C 187.507812 146.078125 188.109375 146.292969 188.699219 146.535156 C 189.289062 146.777344 189.863281 147.050781 190.429688 147.351562 C 190.992188 147.652344 191.539062 147.976562 192.070312 148.332031 C 192.601562 148.6875 193.113281 149.066406 193.605469 149.46875 C 194.101562 149.871094 194.574219 150.300781 195.023438 150.75 C 195.476562 151.199219 195.90625 151.671875 196.308594 152.164062 C 196.714844 152.65625 197.09375 153.167969 197.449219 153.695312 C 197.804688 154.226562 198.132812 154.773438 198.433594 155.332031 C 198.734375 155.894531 199.007812 156.46875 199.253906 157.058594 C 199.496094 157.648438 199.710938 158.246094 199.898438 158.855469 C 200.082031 159.464844 200.238281 160.082031 200.363281 160.707031 C 200.488281 161.332031 200.582031 161.960938 200.644531 162.59375 C 200.707031 163.230469 200.738281 163.863281 200.738281 164.5 C 200.738281 165.136719 200.707031 165.773438 200.644531 166.410156 C 200.585938 167.042969 200.492188 167.671875 200.367188 168.300781 C 200.242188 168.925781 200.089844 169.542969 199.90625 170.152344 C 199.71875 170.761719 199.503906 171.363281 199.261719 171.953125 C 199.015625 172.542969 198.746094 173.117188 198.445312 173.679688 C 198.144531 174.242188 197.816406 174.789062 197.460938 175.320312 C 197.105469 175.851562 196.726562 176.363281 196.320312 176.855469 C 195.917969 177.347656 195.488281 177.820312 195.035156 178.273438 C 194.585938 178.722656 194.113281 179.152344 193.617188 179.554688 C 193.125 179.960938 192.609375 180.339844 192.078125 180.695312 C 191.546875 181.050781 191 181.378906 190.4375 181.679688 C 189.875 181.980469 189.296875 182.25 188.707031 182.496094 C 188.113281 182.738281 187.515625 182.953125 186.902344 183.140625 C 186.289062 183.324219 185.671875 183.480469 185.042969 183.605469 C 184.417969 183.730469 183.785156 183.824219 183.148438 183.886719 C 182.511719 183.949219 181.875 183.980469 181.234375 183.980469 Z M 193.113281 117.449219 L 195.695312 132.523438 L 182.152344 125.410156 L 168.558594 132.535156 L 171.136719 117.460938 L 160.171875 106.8125 L 175.347656 104.613281 L 182.132812 90.863281 L 188.921875 104.582031 L 204.097656 106.8125 Z M 193.113281 117.449219 " fill-opacity="1" fill-rule="nonzero"/></g><g fill="#5deb11" fill-opacity="1"><g transform="translate(71.449219, 280.896471)"><g><path d="M 9.3125 -8.96875 L 9.3125 0 L 2.65625 0 L 2.65625 -24.625 L 10.734375 -24.625 C 17.421875 -24.625 20.765625 -22.195312 20.765625 -17.34375 C 20.765625 -14.5 19.375 -12.296875 16.59375 -10.734375 L 23.765625 0 L 16.21875 0 L 11 -8.96875 Z M 9.3125 -13.96875 L 10.5625 -13.96875 C 12.882812 -13.96875 14.046875 -14.992188 14.046875 -17.046875 C 14.046875 -18.742188 12.90625 -19.59375 10.625 -19.59375 L 9.3125 -19.59375 Z M 9.3125 -13.96875 "/></g></g><g transform="translate(94.797361, 280.896471)"><g><path d="M 2.65625 0 L 2.65625 -24.625 L 9.34375 -24.625 L 9.34375 0 Z M 2.65625 0 "/></g></g><g transform="translate(106.808347, 280.896471)"><g><path d="M 18.765625 -7.484375 C 18.765625 -5.953125 18.375 -4.59375 17.59375 -3.40625 C 16.820312 -2.226562 15.707031 -1.304688 14.25 -0.640625 C 12.789062 0.015625 11.078125 0.34375 9.109375 0.34375 C 7.472656 0.34375 6.097656 0.226562 4.984375 0 C 3.867188 -0.238281 2.710938 -0.644531 1.515625 -1.21875 L 1.515625 -7.140625 C 2.785156 -6.492188 4.101562 -5.988281 5.46875 -5.625 C 6.84375 -5.257812 8.101562 -5.078125 9.25 -5.078125 C 10.238281 -5.078125 10.960938 -5.242188 11.421875 -5.578125 C 11.878906 -5.921875 12.109375 -6.363281 12.109375 -6.90625 C 12.109375 -7.238281 12.015625 -7.53125 11.828125 -7.78125 C 11.648438 -8.039062 11.351562 -8.296875 10.9375 -8.546875 C 10.53125 -8.804688 9.441406 -9.335938 7.671875 -10.140625 C 6.054688 -10.867188 4.847656 -11.578125 4.046875 -12.265625 C 3.242188 -12.953125 2.648438 -13.738281 2.265625 -14.625 C 1.878906 -15.507812 1.6875 -16.554688 1.6875 -17.765625 C 1.6875 -20.035156 2.507812 -21.804688 4.15625 -23.078125 C 5.8125 -24.347656 8.082031 -24.984375 10.96875 -24.984375 C 13.519531 -24.984375 16.117188 -24.394531 18.765625 -23.21875 L 16.734375 -18.078125 C 14.429688 -19.128906 12.441406 -19.65625 10.765625 -19.65625 C 9.898438 -19.65625 9.269531 -19.503906 8.875 -19.203125 C 8.476562 -18.898438 8.28125 -18.523438 8.28125 -18.078125 C 8.28125 -17.585938 8.53125 -17.148438 9.03125 -16.765625 C 9.53125 -16.390625 10.890625 -15.695312 13.109375 -14.6875 C 15.234375 -13.726562 16.707031 -12.703125 17.53125 -11.609375 C 18.351562 -10.515625 18.765625 -9.140625 18.765625 -7.484375 Z M 18.765625 -7.484375 "/></g></g><g transform="translate(126.719967, 280.896471)"><g><path d="M 13.53125 0 L 6.875 0 L 6.875 -19.1875 L 0.859375 -19.1875 L 0.859375 -24.625 L 19.53125 -24.625 L 19.53125 -19.1875 L 13.53125 -19.1875 Z M 13.53125 0 "/></g></g><g transform="translate(147.103266, 280.896471)"><g><path d="M 25.703125 -12.34375 C 25.703125 -8.195312 24.6875 -5.046875 22.65625 -2.890625 C 20.625 -0.734375 17.648438 0.34375 13.734375 0.34375 C 9.867188 0.34375 6.90625 -0.738281 4.84375 -2.90625 C 2.78125 -5.082031 1.75 -8.238281 1.75 -12.375 C 1.75 -16.476562 2.773438 -19.609375 4.828125 -21.765625 C 6.878906 -23.929688 9.859375 -25.015625 13.765625 -25.015625 C 17.679688 -25.015625 20.648438 -23.941406 22.671875 -21.796875 C 24.691406 -19.648438 25.703125 -16.5 25.703125 -12.34375 Z M 8.765625 -12.34375 C 8.765625 -7.582031 10.421875 -5.203125 13.734375 -5.203125 C 15.410156 -5.203125 16.65625 -5.78125 17.46875 -6.9375 C 18.289062 -8.09375 18.703125 -9.894531 18.703125 -12.34375 C 18.703125 -14.800781 18.285156 -16.617188 17.453125 -17.796875 C 16.628906 -18.972656 15.398438 -19.5625 13.765625 -19.5625 C 10.429688 -19.5625 8.765625 -17.15625 8.765625 -12.34375 Z M 8.765625 -12.34375 "/></g></g><g transform="translate(174.595452, 280.896471)"><g><path d="M 25.703125 -12.34375 C 25.703125 -8.195312 24.6875 -5.046875 22.65625 -2.890625 C 20.625 -0.734375 17.648438 0.34375 13.734375 0.34375 C 9.867188 0.34375 6.90625 -0.738281 4.84375 -2.90625 C 2.78125 -5.082031 1.75 -8.238281 1.75 -12.375 C 1.75 -16.476562 2.773438 -19.609375 4.828125 -21.765625 C 6.878906 -23.929688 9.859375 -25.015625 13.765625 -25.015625 C 17.679688 -25.015625 20.648438 -23.941406 22.671875 -21.796875 C 24.691406 -19.648438 25.703125 -16.5 25.703125 -12.34375 Z M 8.765625 -12.34375 C 8.765625 -7.582031 10.421875 -5.203125 13.734375 -5.203125 C 15.410156 -5.203125 16.65625 -5.78125 17.46875 -6.9375 C 18.289062 -8.09375 18.703125 -9.894531 18.703125 -12.34375 C 18.703125 -14.800781 18.285156 -16.617188 17.453125 -17.796875 C 16.628906 -18.972656 15.398438 -19.5625 13.765625 -19.5625 C 10.429688 -19.5625 8.765625 -17.15625 8.765625 -12.34375 Z M 8.765625 -12.34375 "/></g></g><g transform="translate(202.087638, 280.896471)"><g><path d="M 9.3125 -8.96875 L 9.3125 0 L 2.65625 0 L 2.65625 -24.625 L 10.734375 -24.625 C 17.421875 -24.625 20.765625 -22.195312 20.765625 -17.34375 C 20.765625 -14.5 19.375 -12.296875 16.59375 -10.734375 L 23.765625 0 L 16.21875 0 L 11 -8.96875 Z M 9.3125 -13.96875 L 10.5625 -13.96875 C 12.882812 -13.96875 14.046875 -14.992188 14.046875 -17.046875 C 14.046875 -18.742188 12.90625 -19.59375 10.625 -19.59375 L 9.3125 -19.59375 Z M 9.3125 -13.96875 "/></g></g><g transform="translate(225.43578, 280.896471)"><g><path d="M 23.5625 -12.84375 C 23.5625 -8.726562 22.429688 -5.554688 20.171875 -3.328125 C 17.910156 -1.109375 14.726562 0 10.625 0 L 2.65625 0 L 2.65625 -24.625 L 11.1875 -24.625 C 15.132812 -24.625 18.179688 -23.613281 20.328125 -21.59375 C 22.484375 -19.570312 23.5625 -16.65625 23.5625 -12.84375 Z M 16.65625 -12.59375 C 16.65625 -14.851562 16.207031 -16.523438 15.3125 -17.609375 C 14.425781 -18.703125 13.070312 -19.25 11.25 -19.25 L 9.3125 -19.25 L 9.3125 -5.453125 L 10.796875 -5.453125 C 12.816406 -5.453125 14.296875 -6.039062 15.234375 -7.21875 C 16.179688 -8.394531 16.65625 -10.1875 16.65625 -12.59375 Z M 16.65625 -12.59375 "/></g></g><g transform="translate(250.754871, 280.896471)"><g><path d="M 2.65625 0 L 2.65625 -24.625 L 9.34375 -24.625 L 9.34375 0 Z M 2.65625 0 "/></g></g><g transform="translate(262.765856, 280.896471)"><g><path d="M 26.109375 0 L 17.390625 0 L 8.390625 -17.34375 L 8.234375 -17.34375 C 8.453125 -14.613281 8.5625 -12.53125 8.5625 -11.09375 L 8.5625 0 L 2.65625 0 L 2.65625 -24.625 L 11.359375 -24.625 L 20.3125 -7.515625 L 20.421875 -7.515625 C 20.265625 -9.992188 20.1875 -11.988281 20.1875 -13.5 L 20.1875 -24.625 L 26.109375 -24.625 Z M 26.109375 0 "/></g></g><g transform="translate(291.538315, 280.896471)"><g><path d="M 2.65625 0 L 2.65625 -24.625 L 9.34375 -24.625 L 9.34375 0 Z M 2.65625 0 "/></g></g></g></svg>